<svg xmlns="http://www.w3.org/2000/svg" viewBox="0 0 128 128" role="img" aria-label="Bunny avatar">
  <rect width="128" height="128" rx="28" fill="#f3b5c6"/>
  <path d="M47 58c-10-23-8-44 2-47 9-2 17 17 19 40 5-22 16-39 25-35 10 4 7 25-8 46 8 7 12 16 12 27 0 19-15 31-33 31S31 108 31 89c0-12 6-23 16-31Z" fill="#fff"/>
  <circle cx="52" cy="84" r="5" fill="#1f2933"/><circle cx="76" cy="84" r="5" fill="#1f2933"/>
  <path d="M64 92v9" stroke="#1f2933" stroke-width="5" stroke-linecap="round"/>
</svg>
