<svg xmlns="http://www.w3.org/2000/svg" viewBox="0 0 128 128" role="img" aria-label="Squirrel avatar">
  <rect width="128" height="128" rx="28" fill="#b7d7e8"/>
  <path d="M80 35c22 2 32 28 18 44-7 8-18 10-27 5 12-8 15-22 7-33-7-10-19-10-27-4-12 9-14 30 0 40 10 8 26 7 35-1-2 16-17 28-35 26-20-2-34-18-34-38 0-22 18-40 41-40 8 0 15 2 22 1Z" fill="#8b5e3c"/>
  <circle cx="58" cy="62" r="5" fill="#1f2933"/>
  <path d="M66 70c5 1 8 4 9 8" stroke="#1f2933" stroke-width="5" stroke-linecap="round" fill="none"/>
</svg>
